<svg xmlns="http://www.w3.org/2000/svg" width="111.999" height="111.999" fill-rule="evenodd" clip-rule="evenodd" image-rendering="optimizeQuality" shape-rendering="geometricPrecision" text-rendering="geometricPrecision" viewBox="0 0 1166.66 1166.66" id="home">
  <path fill-rule="nonzero" d="M890.71 446c-2.88,0 -5.68,-0.84 -8.23,-2.57l-37.6 -26.41c-3.78,-2.65 -6.09,-6.95 -6.09,-11.56l-0.66 -128 -61.55 0 -0.58 66.3c-0.08,5.23 -2.96,9.99 -7.57,12.43 -4.61,2.44 -10.2,2.17 -14.57,-0.74l-192.54 -128.35 -314.82 207.62c-6.58,4.33 -15.39,2.52 -19.75,-4.06 -4.28,-6.54 -2.47,-15.35 4.03,-19.69l322.72 -212.81c4.77,-3.13 11.03,-3.13 15.72,0.05l178.56 119 0.49 -54.13c0.08,-7.8 6.42,-14.06 14.24,-14.06l89.69 0c7.82,0 14.24,6.31 14.24,14.13l0.74 134.78 31.68 22.21c6.42,4.51 7.98,13.37 3.45,19.79 -2.71,3.95 -7.16,6.06 -11.6,6.06z"></path>
  <path fill-rule="nonzero" d="M644.85 909.52l-150.25 0c-7.9,0 -14.23,-6.37 -14.23,-14.24l0 -236.63 -94.63 0 0 236.63c0,7.87 -6.42,14.24 -14.24,14.24l-94.38 0c-7.9,0 -14.24,-6.37 -14.24,-14.24l0 -377.47c0,-4.79 2.39,-9.27 6.42,-11.9l287.42 -187.95c4.69,-3.1 10.78,-3.1 15.55,-0.02l287.75 187.98c4.03,2.63 6.42,7.11 6.42,11.9l0 251.66c0,7.85 -6.33,14.22 -14.24,14.22 -7.81,0 -14.15,-6.37 -14.15,-14.22l0 -243.97 -273.59 -178.66 -273.1 178.66 0 355.56 65.91 0 0 -236.66c0,-7.84 6.33,-14.21 14.23,-14.21l123.1 0c7.82,0 14.24,6.37 14.24,14.21l0 236.66 136.02 0c7.9,0 14.24,6.37 14.24,14.21 0,7.87 -6.33,14.24 -14.24,14.24z"></path>
  <path fill-rule="nonzero" d="M629.21 757.96l97.34 0 0-97.38-97.34 0 0 97.38zm125.81 28.45l-154.28 0 0-154.28 154.28 0 0 154.28zM741.2 849.71c-20.9 0-37.85 18.01-37.85 40.14 0 19.87 7.24 51.41 26.58 51.41 53.57 0 91.42.54 116.52.87 12.59.18 22.46.3 29.46.3 20.9 0 37.85-18.37 37.85-40.93 0-22.57-16.95-40.93-37.85-40.93l-11.6 0-3.13-9.96c-6.42-20.66-26.08-35.08-47.72-35.08-19.33 0-37.03 10.98-45.01 27.97l-5.02 10.54-11.36-2.82c-3.87-.97-7.73-1.5-10.86-1.5zm134.7 121.14c-7.16 0-16.7-.13-29.87-.3-25.02-.33-62.7-.84-116.11-.84-37.77 0-54.96-41.39-54.96-79.85 0-37.83 29.7-68.59 66.24-68.59 2.22 0 4.52.15 6.99.41 14.24-21.29 38.76-34.56 65.25-34.56 30.53 0 58.59 18.34 71.26 45.65 32.42 4.51 57.52 33.62 57.52 68.75 0 38.26-29.79 69.36-66.32 69.36z"></path>
</svg>
